<svg width="32" height="32" viewBox="0 0 32 32" fill="none" xmlns="http://www.w3.org/2000/svg">
<path d="M15.5283 31.5333C6.9702 31.5333 0 24.4561 0 15.7667C0 7.07718 6.9702 0 15.5283 0C17.7682 0 19.9411 0.475206 21.9804 1.42562C23.117 1.95174 23.6185 3.30947 23.1003 4.48052C22.5821 5.63459 21.2449 6.14374 20.0916 5.61762C18.6541 4.95572 17.1163 4.61629 15.5283 4.61629C9.46075 4.61629 4.5298 9.62293 4.5298 15.7836C4.5298 21.9443 9.46075 26.951 15.5283 26.951C17.1163 26.951 18.6541 26.6115 20.0916 25.9497C21.2282 25.4235 22.5654 25.9327 23.1003 27.0868C23.6185 28.2408 23.117 29.5986 21.9804 30.1417C19.9411 31.0581 17.7682 31.5333 15.5283 31.5333Z" fill="#066987"/>
<path d="M15.5283 31.5333C13.2885 31.5333 11.1156 31.0581 9.07632 30.1077C7.93969 29.5816 7.43824 28.2239 7.95641 27.0528C8.47457 25.8987 9.81178 25.3896 10.9651 25.9157C12.4026 26.5776 13.9404 26.917 15.5284 26.917C21.5959 26.917 26.5269 21.9104 26.5269 15.7497C26.5269 9.58898 21.5959 4.58235 15.5284 4.58235C13.9404 4.58235 12.4026 4.92178 10.9651 5.58367C9.8285 6.10979 8.49129 5.60065 7.95641 4.44657C7.43824 3.2925 7.93969 1.93477 9.07632 1.39168C11.1156 0.475206 13.2885 0 15.5283 0C24.0865 0 31.0567 7.07718 31.0567 15.7667C31.0567 24.4561 24.1032 31.5333 15.5283 31.5333Z" fill="#2C8DB3"/>
<path d="M21.6624 11.9582L19.8631 8.73666C20.0064 8.50298 20.086 8.23591 20.086 7.95214C20.086 7.16762 19.4809 6.53333 18.7325 6.53333C18.1592 6.53333 17.6656 6.91724 17.4745 7.43469L16.1847 8.13575C15.9777 8.01891 15.7548 7.95214 15.5 7.95214C14.7516 7.95214 14.1465 8.58644 14.1465 9.37096C14.1465 9.7048 14.258 10.0219 14.449 10.2556L12.4586 14.679C12.4427 14.679 12.4427 14.679 12.4268 14.679C12.3471 14.679 12.2516 14.6957 12.172 14.7124L10.6115 12.4924C10.6752 12.3254 10.707 12.1585 10.707 11.9749C10.707 11.1904 10.1019 10.5561 9.3535 10.5561C8.6051 10.5561 8 11.1904 8 11.9749C8 12.7594 8.6051 13.3937 9.3535 13.3937C9.57643 13.3937 9.79936 13.327 9.99045 13.2268L11.3758 15.2131C11.1847 15.4635 11.0732 15.764 11.0732 16.1145C11.0732 16.899 11.6783 17.5333 12.4268 17.5333C13.1752 17.5333 13.7803 16.899 13.7803 16.1145C13.7803 15.6972 13.6051 15.3133 13.3185 15.0462L15.2452 10.7731C15.3248 10.7898 15.4204 10.8065 15.5 10.8065C16.2484 10.8065 16.8535 10.1722 16.8535 9.38765C16.8535 9.22073 16.8217 9.0705 16.7739 8.92027L17.4904 8.53636C17.6975 9.03712 18.1752 9.38765 18.7325 9.38765C18.8599 9.38765 18.9873 9.37096 19.1147 9.33757L20.7866 12.3254C20.4841 12.5925 20.293 12.9764 20.293 13.4104C20.293 14.1949 20.8981 14.8292 21.6465 14.8292C22.3949 14.8292 23 14.1949 23 13.4104C23 12.5925 22.3949 11.9582 21.6624 11.9582Z" fill="#2C8DB3"/>
<path d="M9.66133 13.747C9.47746 13.8149 9.27688 13.8489 9.0763 13.8489C8.47456 13.8489 7.95639 13.5434 7.65552 13.0682V21.8595C8.37427 22.8099 9.26017 23.6415 10.2631 24.2695V14.5956L9.66133 13.747Z" fill="#066987"/>
<path d="M12.3023 18.0578C11.7674 18.0578 11.2827 17.8033 10.9818 17.3959V24.6938C11.149 24.7786 11.3329 24.8635 11.5 24.9483C11.617 24.9992 11.7173 25.0502 11.8343 25.0841C11.8845 25.1011 11.9346 25.118 11.9847 25.152C12.085 25.1859 12.202 25.2368 12.3023 25.2708C12.3525 25.2878 12.4193 25.3047 12.4695 25.3387C12.5698 25.3726 12.6701 25.4066 12.7704 25.4235C12.8372 25.4405 12.9041 25.4575 12.9709 25.4745C13.0545 25.4914 13.1548 25.5254 13.2384 25.5423C13.322 25.5593 13.3888 25.5763 13.4724 25.5933C13.5058 25.5933 13.5392 25.6102 13.5727 25.6102V17.4299C13.2885 17.8202 12.8205 18.0578 12.3023 18.0578Z" fill="#066987"/>
<path d="M15.5283 11.2183C15.4949 11.2183 15.4615 11.2183 15.4113 11.2183L14.2245 13.7979V25.746C14.2413 25.746 14.2413 25.746 14.258 25.746C14.3415 25.763 14.4084 25.763 14.492 25.7799C14.5923 25.7969 14.7093 25.7969 14.8096 25.8139C14.8764 25.8139 14.9433 25.8308 14.9934 25.8308C15.1606 25.8478 15.3445 25.8478 15.5116 25.8478C15.6788 25.8478 15.8626 25.8478 16.0298 25.8308C16.0966 25.8308 16.1635 25.8139 16.2136 25.8139C16.3139 25.8139 16.4309 25.7969 16.5312 25.7799C16.6148 25.7799 16.6817 25.763 16.7652 25.746C16.782 25.746 16.782 25.746 16.7987 25.746V10.5903C16.5312 10.9637 16.0632 11.2183 15.5283 11.2183Z" fill="#066987"/>
<path d="M19.1889 9.74172C19.1054 9.7587 19.0218 9.7587 18.9215 9.7587C18.3866 9.7587 17.9019 9.50412 17.5843 9.0968V25.5932C17.6512 25.5763 17.718 25.5593 17.8016 25.5423C17.9019 25.5254 17.9855 25.4914 18.0858 25.4744C18.1526 25.4575 18.2195 25.4405 18.2863 25.4235C18.3866 25.3896 18.4869 25.3556 18.5872 25.3387C18.6373 25.3217 18.7042 25.3047 18.7544 25.2878C18.8714 25.2538 18.9717 25.2029 19.0719 25.169C19.1221 25.152 19.1722 25.135 19.2224 25.118C19.3394 25.0671 19.4397 25.0162 19.5567 24.9653C19.774 24.8635 19.9913 24.7616 20.2086 24.6428V11.5068L19.1889 9.74172Z" fill="#066987"/>
<path d="M21.9803 15.2915C21.4622 15.2915 20.9774 15.0539 20.6766 14.6635V24.3543C21.6795 23.7264 22.5654 22.9457 23.2841 22.0122V14.6635C22.9833 15.0539 22.4985 15.2915 21.9803 15.2915Z" fill="#066987"/>
</svg>
