<svg width="482" height="461" viewBox="0 0 482 461" fill="none" xmlns="http://www.w3.org/2000/svg">
<path d="M173.534 445.859C172.14 445.859 170.939 445.641 169.929 445.203C168.929 444.765 168.152 444.104 167.598 443.22C167.053 442.327 166.781 441.224 166.781 439.91C166.781 439.741 166.781 439.593 166.781 439.468C166.781 439.343 166.781 439.2 166.781 439.04H169.688C169.688 439.191 169.688 439.325 169.688 439.441C169.688 439.549 169.688 439.687 169.688 439.857C169.688 441.072 170.014 441.965 170.666 442.537C171.318 443.099 172.27 443.381 173.52 443.381C174.798 443.381 175.771 443.166 176.441 442.738C177.111 442.3 177.446 441.599 177.446 440.634C177.446 439.946 177.236 439.37 176.816 438.906C176.406 438.432 175.834 438.026 175.101 437.686C174.378 437.347 173.543 437.03 172.596 436.735C171.533 436.404 170.573 435.985 169.715 435.475C168.858 434.957 168.174 434.314 167.665 433.546C167.165 432.769 166.915 431.822 166.915 430.705C166.915 429.607 167.192 428.673 167.745 427.905C168.299 427.137 169.067 426.556 170.05 426.163C171.033 425.761 172.158 425.56 173.427 425.56C174.775 425.56 175.95 425.77 176.95 426.19C177.96 426.601 178.741 427.226 179.295 428.066C179.858 428.897 180.139 429.946 180.139 431.215C180.139 431.393 180.139 431.55 180.139 431.684C180.139 431.809 180.139 431.965 180.139 432.153H177.218C177.218 432.001 177.218 431.862 177.218 431.737C177.218 431.612 177.218 431.478 177.218 431.335C177.218 430.174 176.901 429.334 176.267 428.816C175.642 428.298 174.713 428.039 173.48 428.039C172.283 428.039 171.359 428.249 170.707 428.669C170.063 429.089 169.742 429.768 169.742 430.705C169.742 431.402 169.947 431.983 170.358 432.447C170.778 432.912 171.35 433.309 172.073 433.64C172.806 433.97 173.636 434.292 174.565 434.605C175.744 434.998 176.758 435.44 177.607 435.931C178.464 436.422 179.125 437.034 179.59 437.767C180.054 438.499 180.287 439.424 180.287 440.54C180.287 441.666 180.01 442.626 179.456 443.421C178.902 444.216 178.121 444.823 177.111 445.243C176.102 445.654 174.909 445.859 173.534 445.859ZM184.484 439.482V437.217H194.962L194.56 437.887C194.56 437.834 194.56 437.78 194.56 437.726C194.56 437.664 194.56 437.61 194.56 437.566C194.56 436.842 194.404 436.177 194.091 435.569C193.778 434.953 193.309 434.462 192.684 434.095C192.068 433.72 191.295 433.533 190.366 433.533C189.437 433.533 188.62 433.734 187.914 434.136C187.217 434.529 186.673 435.091 186.28 435.824C185.895 436.547 185.703 437.418 185.703 438.437C185.703 439.473 185.891 440.366 186.266 441.116C186.641 441.858 187.182 442.429 187.887 442.831C188.593 443.233 189.437 443.434 190.42 443.434C191.108 443.434 191.702 443.367 192.202 443.233C192.711 443.09 193.126 442.903 193.448 442.671C193.778 442.438 194.028 442.188 194.198 441.92C194.368 441.643 194.466 441.371 194.493 441.103H197.387C197.334 441.684 197.141 442.26 196.811 442.831C196.489 443.394 196.029 443.908 195.431 444.372C194.841 444.828 194.118 445.194 193.26 445.471C192.412 445.739 191.434 445.873 190.326 445.873C188.843 445.873 187.543 445.56 186.427 444.935C185.31 444.31 184.439 443.443 183.814 442.336C183.189 441.219 182.876 439.942 182.876 438.504C182.876 437.039 183.193 435.752 183.828 434.645C184.462 433.537 185.342 432.675 186.467 432.059C187.593 431.433 188.883 431.121 190.339 431.121C191.822 431.121 193.104 431.433 194.185 432.059C195.275 432.684 196.114 433.546 196.704 434.645C197.293 435.743 197.588 437.007 197.588 438.437C197.588 438.606 197.584 438.803 197.575 439.026C197.566 439.249 197.552 439.401 197.535 439.482H184.484ZM207.729 445.859C206.3 445.859 205.018 445.56 203.884 444.962C202.758 444.354 201.87 443.492 201.217 442.376C200.574 441.259 200.253 439.946 200.253 438.437C200.253 436.927 200.574 435.627 201.217 434.538C201.87 433.439 202.758 432.595 203.884 432.005C205.018 431.416 206.3 431.121 207.729 431.121C208.81 431.121 209.77 431.286 210.61 431.617C211.45 431.938 212.16 432.367 212.74 432.903C213.321 433.439 213.763 434.028 214.067 434.672C214.371 435.315 214.523 435.958 214.523 436.601C214.523 436.61 214.523 436.623 214.523 436.641C214.523 436.659 214.523 436.677 214.523 436.695H211.642C211.642 436.65 211.637 436.601 211.628 436.547C211.619 436.485 211.61 436.427 211.602 436.373C211.53 435.846 211.325 435.377 210.985 434.966C210.646 434.555 210.199 434.229 209.645 433.988C209.092 433.747 208.444 433.626 207.703 433.626C206.89 433.626 206.139 433.805 205.452 434.162C204.773 434.511 204.228 435.042 203.817 435.757C203.406 436.471 203.201 437.365 203.201 438.437C203.201 439.508 203.401 440.411 203.803 441.143C204.214 441.867 204.759 442.416 205.438 442.791C206.126 443.166 206.881 443.354 207.703 443.354C208.587 443.354 209.31 443.22 209.873 442.952C210.436 442.675 210.86 442.309 211.146 441.853C211.432 441.389 211.597 440.889 211.642 440.353H214.523C214.523 440.996 214.375 441.648 214.08 442.309C213.786 442.961 213.352 443.555 212.781 444.091C212.209 444.627 211.499 445.056 210.65 445.377C209.811 445.699 208.837 445.859 207.729 445.859ZM222.92 445.833C221.91 445.833 221.071 445.663 220.401 445.324C219.731 444.975 219.199 444.524 218.806 443.97C218.413 443.408 218.136 442.796 217.976 442.135C217.815 441.465 217.734 440.813 217.734 440.178C217.734 439.848 217.734 439.504 217.734 439.147C217.734 438.78 217.734 438.414 217.734 438.048V431.349H220.655V437.633C220.655 437.954 220.655 438.271 220.655 438.584C220.655 438.888 220.655 439.173 220.655 439.441C220.655 440.129 220.745 440.763 220.923 441.344C221.102 441.916 221.415 442.38 221.861 442.738C222.317 443.086 222.951 443.26 223.764 443.26C224.523 443.26 225.184 443.037 225.747 442.59C226.31 442.135 226.747 441.563 227.06 440.875C227.373 440.178 227.529 439.482 227.529 438.785L228.802 439.468C228.802 440.29 228.663 441.081 228.386 441.84C228.119 442.599 227.73 443.282 227.221 443.89C226.712 444.488 226.091 444.962 225.358 445.31C224.635 445.659 223.822 445.833 222.92 445.833ZM227.529 445.578V431.349H230.437V445.578H227.529ZM234.117 445.578V431.349H237.024V435.891L236.247 435.542C236.31 434.962 236.457 434.408 236.689 433.881C236.921 433.354 237.23 432.885 237.614 432.474C238.007 432.054 238.489 431.724 239.061 431.483C239.632 431.241 240.293 431.121 241.044 431.121C241.615 431.121 242.075 431.165 242.424 431.255C242.781 431.344 243 431.416 243.08 431.469L242.464 434.203C242.375 434.14 242.192 434.06 241.915 433.961C241.647 433.863 241.272 433.814 240.789 433.814C240.057 433.814 239.449 433.944 238.967 434.203C238.485 434.462 238.1 434.805 237.815 435.234C237.529 435.663 237.323 436.132 237.198 436.641C237.082 437.141 237.024 437.646 237.024 438.155V445.578H234.117ZM246.192 439.482V437.217H256.67L256.268 437.887C256.268 437.834 256.268 437.78 256.268 437.726C256.268 437.664 256.268 437.61 256.268 437.566C256.268 436.842 256.111 436.177 255.799 435.569C255.486 434.953 255.017 434.462 254.392 434.095C253.776 433.72 253.003 433.533 252.074 433.533C251.145 433.533 250.328 433.734 249.622 434.136C248.925 434.529 248.38 435.091 247.987 435.824C247.603 436.547 247.411 437.418 247.411 438.437C247.411 439.473 247.599 440.366 247.974 441.116C248.349 441.858 248.889 442.429 249.595 442.831C250.301 443.233 251.145 443.434 252.127 443.434C252.815 443.434 253.409 443.367 253.91 443.233C254.419 443.09 254.834 442.903 255.156 442.671C255.486 442.438 255.736 442.188 255.906 441.92C256.076 441.643 256.174 441.371 256.201 441.103H259.095C259.041 441.684 258.849 442.26 258.519 442.831C258.197 443.394 257.737 443.908 257.139 444.372C256.549 444.828 255.826 445.194 254.968 445.471C254.119 445.739 253.141 445.873 252.034 445.873C250.551 445.873 249.251 445.56 248.135 444.935C247.018 444.31 246.147 443.443 245.522 442.336C244.897 441.219 244.584 439.942 244.584 438.504C244.584 437.039 244.901 435.752 245.535 434.645C246.169 433.537 247.049 432.675 248.175 432.059C249.3 431.433 250.591 431.121 252.047 431.121C253.53 431.121 254.812 431.433 255.893 432.059C256.982 432.684 257.822 433.546 258.412 434.645C259.001 435.743 259.296 437.007 259.296 438.437C259.296 438.606 259.291 438.803 259.282 439.026C259.274 439.249 259.26 439.401 259.242 439.482H246.192ZM275.359 445.859C273.966 445.859 272.764 445.641 271.755 445.203C270.755 444.765 269.977 444.104 269.424 443.22C268.879 442.327 268.606 441.224 268.606 439.91C268.606 439.741 268.606 439.593 268.606 439.468C268.606 439.343 268.606 439.2 268.606 439.04H271.514C271.514 439.191 271.514 439.325 271.514 439.441C271.514 439.549 271.514 439.687 271.514 439.857C271.514 441.072 271.84 441.965 272.492 442.537C273.144 443.099 274.095 443.381 275.346 443.381C276.623 443.381 277.597 443.166 278.267 442.738C278.937 442.3 279.272 441.599 279.272 440.634C279.272 439.946 279.062 439.37 278.642 438.906C278.231 438.432 277.659 438.026 276.927 437.686C276.203 437.347 275.368 437.03 274.421 436.735C273.358 436.404 272.398 435.985 271.541 435.475C270.683 434.957 270 434.314 269.491 433.546C268.99 432.769 268.74 431.822 268.74 430.705C268.74 429.607 269.017 428.673 269.571 427.905C270.125 427.137 270.893 426.556 271.876 426.163C272.858 425.761 273.984 425.56 275.252 425.56C276.601 425.56 277.776 425.77 278.776 426.19C279.785 426.601 280.567 427.226 281.121 428.066C281.684 428.897 281.965 429.946 281.965 431.215C281.965 431.393 281.965 431.55 281.965 431.684C281.965 431.809 281.965 431.965 281.965 432.153H279.044C279.044 432.001 279.044 431.862 279.044 431.737C279.044 431.612 279.044 431.478 279.044 431.335C279.044 430.174 278.727 429.334 278.093 428.816C277.467 428.298 276.538 428.039 275.306 428.039C274.109 428.039 273.184 428.249 272.532 428.669C271.889 429.089 271.567 429.768 271.567 430.705C271.567 431.402 271.773 431.983 272.184 432.447C272.604 432.912 273.175 433.309 273.899 433.64C274.631 433.97 275.462 434.292 276.391 434.605C277.57 434.998 278.584 435.44 279.433 435.931C280.29 436.422 280.951 437.034 281.416 437.767C281.88 438.499 282.112 439.424 282.112 440.54C282.112 441.666 281.835 442.626 281.282 443.421C280.728 444.216 279.946 444.823 278.937 445.243C277.927 445.654 276.735 445.859 275.359 445.859ZM292.178 445.859C290.749 445.859 289.467 445.56 288.333 444.962C287.207 444.354 286.319 443.492 285.667 442.376C285.023 441.259 284.702 439.946 284.702 438.437C284.702 436.927 285.023 435.627 285.667 434.538C286.319 433.439 287.207 432.595 288.333 432.005C289.467 431.416 290.749 431.121 292.178 431.121C293.259 431.121 294.219 431.286 295.059 431.617C295.899 431.938 296.609 432.367 297.19 432.903C297.77 433.439 298.212 434.028 298.516 434.672C298.82 435.315 298.972 435.958 298.972 436.601C298.972 436.61 298.972 436.623 298.972 436.641C298.972 436.659 298.972 436.677 298.972 436.695H296.091C296.091 436.65 296.086 436.601 296.077 436.547C296.069 436.485 296.06 436.427 296.051 436.373C295.979 435.846 295.774 435.377 295.434 434.966C295.095 434.555 294.648 434.229 294.094 433.988C293.541 433.747 292.893 433.626 292.152 433.626C291.339 433.626 290.588 433.805 289.901 434.162C289.222 434.511 288.677 435.042 288.266 435.757C287.855 436.471 287.65 437.365 287.65 438.437C287.65 439.508 287.851 440.411 288.253 441.143C288.663 441.867 289.208 442.416 289.887 442.791C290.575 443.166 291.33 443.354 292.152 443.354C293.036 443.354 293.759 443.22 294.322 442.952C294.885 442.675 295.309 442.309 295.595 441.853C295.881 441.389 296.046 440.889 296.091 440.353H298.972C298.972 440.996 298.824 441.648 298.529 442.309C298.235 442.961 297.801 443.555 297.23 444.091C296.658 444.627 295.948 445.056 295.099 445.377C294.26 445.699 293.286 445.859 292.178 445.859ZM309.057 445.846C307.592 445.846 306.297 445.529 305.171 444.895C304.055 444.261 303.179 443.39 302.545 442.282C301.92 441.165 301.607 439.888 301.607 438.45C301.607 437.021 301.92 435.757 302.545 434.658C303.179 433.55 304.055 432.688 305.171 432.072C306.297 431.447 307.592 431.134 309.057 431.134C310.522 431.134 311.813 431.447 312.929 432.072C314.055 432.688 314.93 433.55 315.556 434.658C316.19 435.757 316.507 437.021 316.507 438.45C316.507 439.888 316.19 441.165 315.556 442.282C314.93 443.39 314.055 444.261 312.929 444.895C311.813 445.529 310.522 445.846 309.057 445.846ZM309.057 443.354C309.95 443.354 310.736 443.153 311.415 442.751C312.094 442.349 312.626 441.782 313.01 441.049C313.394 440.308 313.586 439.441 313.586 438.45C313.586 437.467 313.394 436.614 313.01 435.891C312.626 435.167 312.094 434.609 311.415 434.216C310.736 433.823 309.95 433.626 309.057 433.626C308.173 433.626 307.387 433.823 306.699 434.216C306.02 434.609 305.489 435.167 305.104 435.891C304.72 436.614 304.528 437.467 304.528 438.45C304.528 439.441 304.72 440.308 305.104 441.049C305.489 441.782 306.02 442.349 306.699 442.751C307.387 443.153 308.173 443.354 309.057 443.354ZM319.743 445.578V431.349H322.651V435.891L321.874 435.542C321.936 434.962 322.084 434.408 322.316 433.881C322.548 433.354 322.856 432.885 323.24 432.474C323.633 432.054 324.116 431.724 324.687 431.483C325.259 431.241 325.92 431.121 326.67 431.121C327.242 431.121 327.702 431.165 328.051 431.255C328.408 431.344 328.627 431.416 328.707 431.469L328.091 434.203C328.001 434.14 327.818 434.06 327.541 433.961C327.273 433.863 326.898 433.814 326.416 433.814C325.683 433.814 325.076 433.944 324.594 434.203C324.111 434.462 323.727 434.805 323.441 435.234C323.155 435.663 322.95 436.132 322.825 436.641C322.709 437.141 322.651 437.646 322.651 438.155V445.578H319.743ZM331.819 439.482V437.217H342.296L341.894 437.887C341.894 437.834 341.894 437.78 341.894 437.726C341.894 437.664 341.894 437.61 341.894 437.566C341.894 436.842 341.738 436.177 341.425 435.569C341.113 434.953 340.644 434.462 340.019 434.095C339.402 433.72 338.63 433.533 337.701 433.533C336.772 433.533 335.954 433.734 335.249 434.136C334.552 434.529 334.007 435.091 333.614 435.824C333.23 436.547 333.038 437.418 333.038 438.437C333.038 439.473 333.225 440.366 333.601 441.116C333.976 441.858 334.516 442.429 335.222 442.831C335.927 443.233 336.772 443.434 337.754 443.434C338.442 443.434 339.036 443.367 339.536 443.233C340.045 443.09 340.461 442.903 340.782 442.671C341.113 442.438 341.363 442.188 341.533 441.92C341.702 441.643 341.801 441.371 341.827 441.103H344.722C344.668 441.684 344.476 442.26 344.145 442.831C343.824 443.394 343.364 443.908 342.765 444.372C342.176 444.828 341.452 445.194 340.595 445.471C339.746 445.739 338.768 445.873 337.66 445.873C336.178 445.873 334.878 445.56 333.761 444.935C332.645 444.31 331.774 443.443 331.149 442.336C330.523 441.219 330.211 439.942 330.211 438.504C330.211 437.039 330.528 435.752 331.162 434.645C331.796 433.537 332.676 432.675 333.802 432.059C334.927 431.433 336.218 431.121 337.674 431.121C339.157 431.121 340.438 431.433 341.519 432.059C342.609 432.684 343.449 433.546 344.038 434.645C344.628 435.743 344.923 437.007 344.923 438.437C344.923 438.606 344.918 438.803 344.909 439.026C344.9 439.249 344.887 439.401 344.869 439.482H331.819Z" fill="black"/>
<rect x="108.084" y="422.664" width="38.2823" height="38.2823" fill="#F4BE37"/>
<path d="M430.591 242.219H420.427V250.281H413.709V242.219H403.51V235.57H413.709V227.473H420.427V235.57H430.591V242.219ZM476.005 214.243H455.884L454.058 227.507C454.127 227.278 454.368 226.968 454.782 226.577C455.195 226.187 455.769 225.796 456.504 225.406C457.262 224.992 458.193 224.659 459.295 224.406C460.421 224.131 461.718 223.993 463.188 223.993C467.782 223.993 471.274 225.486 473.662 228.472C476.074 231.435 477.28 235.317 477.28 240.118C477.28 243.953 476.614 247.192 475.282 249.834C473.972 252.475 472.032 254.473 469.459 255.829C466.886 257.161 463.682 257.827 459.846 257.827C456.722 257.827 454.07 257.368 451.887 256.449C449.728 255.507 447.971 254.267 446.616 252.728C445.284 251.166 444.308 249.443 443.687 247.56C443.067 245.653 442.757 243.724 442.757 241.771C442.757 241.725 442.757 241.702 442.757 241.702C442.757 241.679 442.757 241.656 442.757 241.633H453.334C453.334 241.656 453.334 241.679 453.334 241.702C453.334 241.702 453.334 241.725 453.334 241.771C453.449 244.229 454.024 246.135 455.057 247.491C456.114 248.846 457.768 249.523 460.019 249.523C461.466 249.523 462.672 249.19 463.636 248.524C464.624 247.858 465.359 246.848 465.841 245.492C466.324 244.114 466.565 242.403 466.565 240.359C466.565 237.602 466.082 235.466 465.118 233.95C464.153 232.411 462.603 231.642 460.466 231.642C459.203 231.642 458.089 231.883 457.124 232.365C456.183 232.848 455.402 233.445 454.782 234.157C454.184 234.869 453.759 235.57 453.507 236.259L443.343 233.606L447.305 206.18H476.005V214.243Z" fill="black"/>
<path d="M395.418 220.274C395.418 247.913 388.876 275.16 376.328 299.787C363.78 324.413 345.582 345.721 323.222 361.967C300.861 378.213 274.973 388.936 247.674 393.259C220.376 397.583 192.441 395.385 166.155 386.844C139.868 378.303 115.976 363.662 96.4325 344.118C76.8887 324.574 62.2478 300.682 53.7068 274.396C45.1658 248.11 42.9673 220.175 47.2911 192.876C51.6148 165.577 62.3379 139.689 78.5838 117.329L114.007 143.065C101.823 159.835 93.7801 179.251 90.5373 199.726C87.2946 220.2 88.9434 241.151 95.3492 260.866C101.755 280.58 112.736 298.499 127.393 313.157C142.051 327.815 159.97 338.796 179.685 345.201C199.4 351.607 220.351 353.256 240.825 350.013C261.299 346.77 280.715 338.728 297.485 326.544C314.256 314.359 327.904 298.379 337.315 279.909C346.726 261.439 351.632 241.004 351.632 220.274H395.418Z" fill="#F4BE37"/>
<path d="M78.5271 117.408C100.251 87.4735 130.893 65.1847 166.063 53.736C201.233 42.2874 239.124 42.2666 274.306 53.6767C309.489 65.0868 340.156 87.342 361.912 117.253C383.668 147.163 395.397 183.194 395.417 220.18L351.632 220.204C351.617 192.464 342.82 165.441 326.503 143.008C310.186 120.575 287.185 103.884 260.799 95.3265C234.412 86.7689 205.994 86.7845 179.616 95.371C153.239 103.957 130.257 120.674 113.964 143.125L78.5271 117.408Z" fill="#CDCDCD"/>
<path d="M189.362 237.827C185.296 237.827 181.977 236.851 179.404 234.898C176.832 232.923 174.937 230.121 173.719 226.492C172.525 222.862 171.928 218.567 171.928 213.606C171.928 209.081 172.318 205.073 173.099 201.581C173.88 198.067 175.029 195.115 176.545 192.727C178.084 190.338 179.967 188.523 182.195 187.283C184.423 186.042 186.984 185.422 189.878 185.422C192.979 185.422 195.517 185.951 197.493 187.007C199.491 188.041 201.041 189.35 202.144 190.935C203.269 192.497 204.05 194.093 204.487 195.724C204.946 197.332 205.176 198.699 205.176 199.824C205.176 199.893 205.176 199.939 205.176 199.962C205.176 199.985 205.176 200.019 205.176 200.065H195.219C195.219 200.019 195.219 199.985 195.219 199.962C195.219 199.939 195.219 199.893 195.219 199.824C195.219 199.25 195.138 198.618 194.978 197.929C194.84 197.217 194.576 196.539 194.185 195.896C193.818 195.253 193.278 194.725 192.566 194.311C191.854 193.898 190.946 193.691 189.844 193.691C188.213 193.691 186.846 194.415 185.744 195.862C184.641 197.286 183.814 199.468 183.263 202.408C182.712 205.325 182.436 209.058 182.436 213.606L180.472 213.64C180.541 212.17 181.047 210.769 181.988 209.437C182.93 208.082 184.285 206.979 186.054 206.129C187.846 205.256 190.016 204.82 192.566 204.82C195.713 204.82 198.343 205.532 200.456 206.956C202.592 208.357 204.188 210.229 205.245 212.572C206.301 214.915 206.83 217.499 206.83 220.324C206.83 223.678 206.175 226.675 204.866 229.317C203.58 231.958 201.639 234.037 199.043 235.553C196.448 237.069 193.22 237.827 189.362 237.827ZM189.499 229.523C190.969 229.523 192.187 229.202 193.151 228.559C194.116 227.916 194.84 226.962 195.322 225.699C195.827 224.436 196.08 222.885 196.08 221.048C196.08 219.256 195.827 217.729 195.322 216.465C194.84 215.179 194.139 214.191 193.22 213.502C192.302 212.813 191.188 212.469 189.878 212.469C188.523 212.469 187.329 212.79 186.295 213.433C185.261 214.077 184.446 215.007 183.849 216.224C183.275 217.419 182.988 218.889 182.988 220.634C182.988 222.38 183.252 223.919 183.78 225.251C184.331 226.583 185.089 227.628 186.054 228.386C187.042 229.144 188.19 229.523 189.499 229.523ZM231.563 237.827C228.324 237.827 225.568 237.126 223.294 235.725C221.043 234.324 219.205 232.418 217.781 230.006C216.38 227.571 215.358 224.78 214.715 221.633C214.072 218.487 213.75 215.179 213.75 211.711C213.75 208.242 214.072 204.935 214.715 201.788C215.358 198.618 216.38 195.804 217.781 193.347C219.205 190.889 221.043 188.96 223.294 187.558C225.568 186.134 228.324 185.422 231.563 185.422C234.802 185.422 237.546 186.134 239.797 187.558C242.071 188.96 243.909 190.889 245.31 193.347C246.734 195.804 247.768 198.618 248.411 201.788C249.054 204.935 249.376 208.242 249.376 211.711C249.376 215.179 249.054 218.487 248.411 221.633C247.768 224.78 246.734 227.571 245.31 230.006C243.909 232.418 242.071 234.324 239.797 235.725C237.546 237.126 234.802 237.827 231.563 237.827ZM231.563 229.523C233.102 229.523 234.388 228.938 235.422 227.766C236.478 226.572 237.271 224.665 237.799 222.047C238.327 219.428 238.592 215.983 238.592 211.711C238.592 207.415 238.327 203.97 237.799 201.375C237.271 198.756 236.478 196.85 235.422 195.655C234.388 194.461 233.102 193.864 231.563 193.864C230.047 193.864 228.761 194.461 227.704 195.655C226.647 196.85 225.855 198.756 225.327 201.375C224.798 203.97 224.534 207.415 224.534 211.711C224.534 216.006 224.798 219.463 225.327 222.081C225.855 224.677 226.647 226.572 227.704 227.766C228.761 228.938 230.047 229.523 231.563 229.523ZM295.66 189.936L257.554 235.725L253.798 232.555L291.939 186.766L295.66 189.936ZM263.893 203.89C262.193 203.89 260.597 203.545 259.104 202.856C257.634 202.144 256.44 201.122 255.521 199.79C254.625 198.457 254.177 196.884 254.177 195.069C254.177 193.209 254.625 191.624 255.521 190.315C256.44 188.983 257.634 187.96 259.104 187.248C260.597 186.513 262.193 186.146 263.893 186.146C265.616 186.146 267.224 186.513 268.717 187.248C270.233 187.96 271.45 188.983 272.369 190.315C273.311 191.624 273.781 193.209 273.781 195.069C273.781 196.884 273.311 198.457 272.369 199.79C271.45 201.122 270.233 202.144 268.717 202.856C267.224 203.545 265.616 203.89 263.893 203.89ZM263.893 199.548C264.697 199.548 265.478 199.399 266.236 199.101C267.017 198.779 267.649 198.285 268.131 197.619C268.636 196.953 268.889 196.103 268.889 195.069C268.889 193.99 268.636 193.117 268.131 192.451C267.649 191.785 267.017 191.302 266.236 191.004C265.478 190.682 264.697 190.521 263.893 190.521C263.089 190.521 262.308 190.682 261.55 191.004C260.815 191.302 260.207 191.785 259.724 192.451C259.265 193.117 259.035 193.99 259.035 195.069C259.035 196.103 259.265 196.953 259.724 197.619C260.207 198.285 260.815 198.779 261.55 199.101C262.308 199.399 263.089 199.548 263.893 199.548ZM284.91 236.69C283.21 236.69 281.614 236.345 280.121 235.656C278.651 234.944 277.457 233.922 276.538 232.59C275.642 231.258 275.194 229.684 275.194 227.87C275.194 226.009 275.642 224.424 276.538 223.115C277.457 221.783 278.651 220.761 280.121 220.049C281.614 219.337 283.21 218.981 284.91 218.981C286.633 218.981 288.252 219.337 289.768 220.049C291.284 220.761 292.502 221.783 293.42 223.115C294.362 224.424 294.833 226.009 294.833 227.87C294.833 229.684 294.362 231.258 293.42 232.59C292.502 233.922 291.284 234.944 289.768 235.656C288.252 236.345 286.633 236.69 284.91 236.69ZM284.91 232.349C285.737 232.349 286.529 232.199 287.287 231.901C288.045 231.579 288.666 231.085 289.148 230.419C289.653 229.753 289.906 228.903 289.906 227.87C289.906 226.813 289.653 225.952 289.148 225.286C288.666 224.62 288.045 224.126 287.287 223.804C286.529 223.483 285.737 223.322 284.91 223.322C284.106 223.322 283.337 223.483 282.602 223.804C281.867 224.126 281.258 224.62 280.776 225.286C280.316 225.952 280.087 226.813 280.087 227.87C280.087 228.903 280.316 229.753 280.776 230.419C281.258 231.085 281.867 231.579 282.602 231.901C283.337 232.199 284.106 232.349 284.91 232.349Z" fill="black"/>
</svg>
